<?xml version="1.0" encoding="UTF-8" standalone="no"?>
<!-- Created with Inkscape (http://www.inkscape.org/) -->

<svg
   width="177.82512mm"
   height="143.92589mm"
   viewBox="0 0 177.82512 143.92589"
   version="1.1"
   id="svg5"
   xml:space="preserve"
   inkscape:version="1.2.1 (9c6d41e410, 2022-07-14)"
   sodipodi:docname="log.jpg"
   xmlns:inkscape="http://www.inkscape.org/namespaces/inkscape"
   xmlns:sodipodi="http://sodipodi.sourceforge.net/DTD/sodipodi-0.dtd"
   xmlns="http://www.w3.org/2000/svg"
   xmlns:svg="http://www.w3.org/2000/svg"><sodipodi:namedview
     id="namedview7"
     pagecolor="#ffffff"
     bordercolor="#000000"
     borderopacity="0.25"
     inkscape:showpageshadow="2"
     inkscape:pageopacity="0.0"
     inkscape:pagecheckerboard="0"
     inkscape:deskcolor="#d1d1d1"
     inkscape:document-units="mm"
     showgrid="false"
     showguides="true"
     inkscape:zoom="1"
     inkscape:cx="304.5"
     inkscape:cy="247"
     inkscape:window-width="2560"
     inkscape:window-height="1417"
     inkscape:window-x="-8"
     inkscape:window-y="-8"
     inkscape:window-maximized="1"
     inkscape:current-layer="layer1" /><defs
     id="defs2" /><g
     inkscape:label="Camada 1"
     inkscape:groupmode="layer"
     id="layer1"
     transform="translate(-14.65533,-50.645393)"><g
       id="g15342"
       transform="matrix(1.1477458,0,0,1.1477458,-17.709861,-11.634927)"><rect
         style="opacity:1;fill:#000000;fill-opacity:1;stroke-width:0.462283"
         id="rect361"
         width="71.617332"
         height="36.0322"
         x="32.117832"
         y="98.783806" /><rect
         style="opacity:1;fill:#000000;fill-opacity:1;stroke-width:0.462283"
         id="rect921"
         width="71.617332"
         height="36.0322"
         x="32.117832"
         y="140.28284" /><rect
         style="opacity:1;fill:#585757;fill-opacity:1;stroke-width:0.462283"
         id="rect923"
         width="71.617332"
         height="36.0322"
         x="107.5969"
         y="98.783806" /><rect
         style="opacity:1;fill:#585757;fill-opacity:1;stroke-width:0.462283"
         id="rect925"
         width="71.617332"
         height="36.0322"
         x="107.5969"
         y="140.13823" /><path
         style="opacity:1;fill:#c3c3c3;fill-opacity:1;stroke-width:0.454001"
         d="M 32.967866,94.276533 105.84421,57.259979 178.28675,94.565725 Z"
         id="path1707" /></g><g
       id="g15335"
       transform="matrix(1.3827409,0,0,1.3827409,-44.114613,-42.625395)"><g
         id="g15373"
         transform="translate(183.15981,1.683798)"><path
           style="opacity:1;fill:#a2a2a2;fill-opacity:1;stroke-width:0.454001"
           d="m -81.112037,128.74207 2.253,-0.0519 -0.0043,-4.2178 c -0.0019,-1.84943 4.476333,-2.15914 4.486452,0.0192 l 0.01986,4.27525 2.243399,-0.002 -0.02556,-4.28149 c -0.02999,-5.02391 -8.992244,-5.32747 -8.981496,-0.0147 z"
           id="path3041"
           sodipodi:nodetypes="ccssccssc" /><rect
           style="opacity:1;fill:#ffffff;fill-opacity:1;stroke-width:0.454001"
           id="rect3191"
           width="14.712633"
           height="14.206549"
           x="-84.046371"
           y="128.29271" /><rect
           style="opacity:1;fill:#ac1b21;fill-opacity:1;stroke-width:0.453836"
           id="rect12342"
           width="14.712561"
           height="1.4058653"
           x="-84.046211"
           y="133.09702" /><rect
           style="opacity:1;fill:#ac1b21;fill-opacity:1;stroke-width:0.453836"
           id="rect12346"
           width="14.712561"
           height="1.4058653"
           x="-84.046211"
           y="130.40761" /><rect
           style="opacity:1;fill:#ac1b21;fill-opacity:1;stroke-width:0.453836"
           id="rect11612"
           width="14.712561"
           height="1.4058653"
           x="-84.046211"
           y="135.7981" /><rect
           style="opacity:1;fill:#ac1b21;fill-opacity:1;stroke-width:0.418487"
           id="rect12350"
           width="14.712561"
           height="1.1953906"
           x="-84.046211"
           y="128.30286" /><rect
           style="opacity:1;fill:#191154;fill-opacity:1;stroke-width:0.454001"
           id="rect3919"
           width="6.0368791"
           height="7.5189877"
           x="-84.046371"
           y="128.29454" /><path
           sodipodi:type="star"
           style="opacity:1;fill:#ffffff;fill-opacity:1;stroke-width:0.454001"
           id="path3973"
           inkscape:flatsided="false"
           sodipodi:sides="5"
           sodipodi:cx="-106.74793"
           sodipodi:cy="124.53322"
           sodipodi:r1="1.1934638"
           sodipodi:r2="0.59673196"
           sodipodi:arg1="0.95758898"
           sodipodi:arg2="1.5859075"
           inkscape:rounded="0"
           inkscape:randomized="0"
           d="m -106.0611,125.50924 -0.69585,-0.37936 -0.70699,0.35816 0.14576,-0.77902 -0.5591,-0.56171 0.78593,-0.1021 0.36145,-0.70532 0.33997,0.71592 0.78249,0.1258 -0.57582,0.54456 z"
           inkscape:transform-center-x="-0.0025898017"
           inkscape:transform-center-y="-0.05047323"
           transform="matrix(0.46453159,0,0,0.46453159,-33.743348,71.195168)" /><rect
           style="opacity:1;fill:#ac1b21;fill-opacity:1;stroke-width:0.453836"
           id="rect9940"
           width="14.712561"
           height="1.4058653"
           x="-84.046211"
           y="141.12331" /><rect
           style="opacity:1;fill:#ac1b21;fill-opacity:1;stroke-width:0.453836"
           id="rect11608"
           width="14.712561"
           height="1.4058653"
           x="-84.046211"
           y="138.31697" /><path
           sodipodi:type="star"
           style="opacity:1;fill:#ffffff;fill-opacity:1;stroke-width:0.454001"
           id="path13804"
           inkscape:flatsided="false"
           sodipodi:sides="5"
           sodipodi:cx="-106.74793"
           sodipodi:cy="124.53322"
           sodipodi:r1="1.1934638"
           sodipodi:r2="0.59673196"
           sodipodi:arg1="0.95758898"
           sodipodi:arg2="1.5859075"
           inkscape:rounded="0"
           inkscape:randomized="0"
           d="m -106.0611,125.50924 -0.69585,-0.37936 -0.70699,0.35816 0.14576,-0.77902 -0.5591,-0.56171 0.78593,-0.1021 0.36145,-0.70532 0.33997,0.71592 0.78249,0.1258 -0.57582,0.54456 z"
           inkscape:transform-center-x="-0.0025898017"
           inkscape:transform-center-y="-0.05047323"
           transform="matrix(0.46453159,0,0,0.46453159,-32.271603,71.195168)" /><path
           sodipodi:type="star"
           style="opacity:1;fill:#ffffff;fill-opacity:1;stroke-width:0.454001"
           id="path13806"
           inkscape:flatsided="false"
           sodipodi:sides="5"
           sodipodi:cx="-106.74793"
           sodipodi:cy="124.53322"
           sodipodi:r1="1.1934638"
           sodipodi:r2="0.59673196"
           sodipodi:arg1="0.95758898"
           sodipodi:arg2="1.5859075"
           inkscape:rounded="0"
           inkscape:randomized="0"
           d="m -106.0611,125.50924 -0.69585,-0.37936 -0.70699,0.35816 0.14576,-0.77902 -0.5591,-0.56171 0.78593,-0.1021 0.36145,-0.70532 0.33997,0.71592 0.78249,0.1258 -0.57582,0.54456 z"
           inkscape:transform-center-x="-0.0025898017"
           inkscape:transform-center-y="-0.05047323"
           transform="matrix(0.46453159,0,0,0.46453159,-30.857736,71.195168)" /><path
           sodipodi:type="star"
           style="opacity:1;fill:#ffffff;fill-opacity:1;stroke-width:0.454001"
           id="path13808"
           inkscape:flatsided="false"
           sodipodi:sides="5"
           sodipodi:cx="-106.74793"
           sodipodi:cy="124.53322"
           sodipodi:r1="1.1934638"
           sodipodi:r2="0.59673196"
           sodipodi:arg1="0.95758898"
           sodipodi:arg2="1.5859075"
           inkscape:rounded="0"
           inkscape:randomized="0"
           d="m -106.0611,125.50924 -0.69585,-0.37936 -0.70699,0.35816 0.14576,-0.77902 -0.5591,-0.56171 0.78593,-0.1021 0.36145,-0.70532 0.33997,0.71592 0.78249,0.1258 -0.57582,0.54456 z"
           inkscape:transform-center-x="-0.0025898017"
           inkscape:transform-center-y="-0.05047323"
           transform="matrix(0.46453159,0,0,0.46453159,-29.419064,71.195168)" /><path
           sodipodi:type="star"
           style="opacity:1;fill:#ffffff;fill-opacity:1;stroke-width:0.454001"
           id="path13810"
           inkscape:flatsided="false"
           sodipodi:sides="5"
           sodipodi:cx="-106.74793"
           sodipodi:cy="124.53322"
           sodipodi:r1="1.1934638"
           sodipodi:r2="0.59673196"
           sodipodi:arg1="0.95758898"
           sodipodi:arg2="1.5859075"
           inkscape:rounded="0"
           inkscape:randomized="0"
           d="m -106.0611,125.50924 -0.69585,-0.37936 -0.70699,0.35816 0.14576,-0.77902 -0.5591,-0.56171 0.78593,-0.1021 0.36145,-0.70532 0.33997,0.71592 0.78249,0.1258 -0.57582,0.54456 z"
           inkscape:transform-center-x="-0.0025898017"
           inkscape:transform-center-y="-0.05047323"
           transform="matrix(0.46453159,0,0,0.46453159,-33.743348,72.741327)" /><path
           sodipodi:type="star"
           style="opacity:1;fill:#ffffff;fill-opacity:1;stroke-width:0.454001"
           id="path13812"
           inkscape:flatsided="false"
           sodipodi:sides="5"
           sodipodi:cx="-106.74793"
           sodipodi:cy="124.53322"
           sodipodi:r1="1.1934638"
           sodipodi:r2="0.59673196"
           sodipodi:arg1="0.95758898"
           sodipodi:arg2="1.5859075"
           inkscape:rounded="0"
           inkscape:randomized="0"
           d="m -106.0611,125.50924 -0.69585,-0.37936 -0.70699,0.35816 0.14576,-0.77902 -0.5591,-0.56171 0.78593,-0.1021 0.36145,-0.70532 0.33997,0.71592 0.78249,0.1258 -0.57582,0.54456 z"
           inkscape:transform-center-x="-0.0025898017"
           inkscape:transform-center-y="-0.05047323"
           transform="matrix(0.46453159,0,0,0.46453159,-32.271603,72.741327)" /><path
           sodipodi:type="star"
           style="opacity:1;fill:#ffffff;fill-opacity:1;stroke-width:0.454001"
           id="path13814"
           inkscape:flatsided="false"
           sodipodi:sides="5"
           sodipodi:cx="-106.74793"
           sodipodi:cy="124.53322"
           sodipodi:r1="1.1934638"
           sodipodi:r2="0.59673196"
           sodipodi:arg1="0.95758898"
           sodipodi:arg2="1.5859075"
           inkscape:rounded="0"
           inkscape:randomized="0"
           d="m -106.0611,125.50924 -0.69585,-0.37936 -0.70699,0.35816 0.14576,-0.77902 -0.5591,-0.56171 0.78593,-0.1021 0.36145,-0.70532 0.33997,0.71592 0.78249,0.1258 -0.57582,0.54456 z"
           inkscape:transform-center-x="-0.0025898017"
           inkscape:transform-center-y="-0.05047323"
           transform="matrix(0.46453159,0,0,0.46453159,-30.857736,72.741327)" /><path
           sodipodi:type="star"
           style="opacity:1;fill:#ffffff;fill-opacity:1;stroke-width:0.454001"
           id="path13816"
           inkscape:flatsided="false"
           sodipodi:sides="5"
           sodipodi:cx="-106.74793"
           sodipodi:cy="124.53322"
           sodipodi:r1="1.1934638"
           sodipodi:r2="0.59673196"
           sodipodi:arg1="0.95758898"
           sodipodi:arg2="1.5859075"
           inkscape:rounded="0"
           inkscape:randomized="0"
           d="m -106.0611,125.50924 -0.69585,-0.37936 -0.70699,0.35816 0.14576,-0.77902 -0.5591,-0.56171 0.78593,-0.1021 0.36145,-0.70532 0.33997,0.71592 0.78249,0.1258 -0.57582,0.54456 z"
           inkscape:transform-center-x="-0.0025898017"
           inkscape:transform-center-y="-0.05047323"
           transform="matrix(0.46453159,0,0,0.46453159,-29.419064,72.741327)" /><path
           sodipodi:type="star"
           style="opacity:1;fill:#ffffff;fill-opacity:1;stroke-width:0.454001"
           id="path13818"
           inkscape:flatsided="false"
           sodipodi:sides="5"
           sodipodi:cx="-106.74793"
           sodipodi:cy="124.53322"
           sodipodi:r1="1.1934638"
           sodipodi:r2="0.59673196"
           sodipodi:arg1="0.95758898"
           sodipodi:arg2="1.5859075"
           inkscape:rounded="0"
           inkscape:randomized="0"
           d="m -106.0611,125.50924 -0.69585,-0.37936 -0.70699,0.35816 0.14576,-0.77902 -0.5591,-0.56171 0.78593,-0.1021 0.36145,-0.70532 0.33997,0.71592 0.78249,0.1258 -0.57582,0.54456 z"
           inkscape:transform-center-x="-0.0025898017"
           inkscape:transform-center-y="-0.05047323"
           transform="matrix(0.46453159,0,0,0.46453159,-33.743348,74.113853)" /><path
           sodipodi:type="star"
           style="opacity:1;fill:#ffffff;fill-opacity:1;stroke-width:0.454001"
           id="path13820"
           inkscape:flatsided="false"
           sodipodi:sides="5"
           sodipodi:cx="-106.74793"
           sodipodi:cy="124.53322"
           sodipodi:r1="1.1934638"
           sodipodi:r2="0.59673196"
           sodipodi:arg1="0.95758898"
           sodipodi:arg2="1.5859075"
           inkscape:rounded="0"
           inkscape:randomized="0"
           d="m -106.0611,125.50924 -0.69585,-0.37936 -0.70699,0.35816 0.14576,-0.77902 -0.5591,-0.56171 0.78593,-0.1021 0.36145,-0.70532 0.33997,0.71592 0.78249,0.1258 -0.57582,0.54456 z"
           inkscape:transform-center-x="-0.0025898017"
           inkscape:transform-center-y="-0.05047323"
           transform="matrix(0.46453159,0,0,0.46453159,-32.271603,74.113853)" /><path
           sodipodi:type="star"
           style="opacity:1;fill:#ffffff;fill-opacity:1;stroke-width:0.454001"
           id="path13822"
           inkscape:flatsided="false"
           sodipodi:sides="5"
           sodipodi:cx="-106.74793"
           sodipodi:cy="124.53322"
           sodipodi:r1="1.1934638"
           sodipodi:r2="0.59673196"
           sodipodi:arg1="0.95758898"
           sodipodi:arg2="1.5859075"
           inkscape:rounded="0"
           inkscape:randomized="0"
           d="m -106.0611,125.50924 -0.69585,-0.37936 -0.70699,0.35816 0.14576,-0.77902 -0.5591,-0.56171 0.78593,-0.1021 0.36145,-0.70532 0.33997,0.71592 0.78249,0.1258 -0.57582,0.54456 z"
           inkscape:transform-center-x="-0.0025898017"
           inkscape:transform-center-y="-0.05047323"
           transform="matrix(0.46453159,0,0,0.46453159,-30.857736,74.113853)" /><path
           sodipodi:type="star"
           style="opacity:1;fill:#ffffff;fill-opacity:1;stroke-width:0.454001"
           id="path13824"
           inkscape:flatsided="false"
           sodipodi:sides="5"
           sodipodi:cx="-106.74793"
           sodipodi:cy="124.53322"
           sodipodi:r1="1.1934638"
           sodipodi:r2="0.59673196"
           sodipodi:arg1="0.95758898"
           sodipodi:arg2="1.5859075"
           inkscape:rounded="0"
           inkscape:randomized="0"
           d="m -106.0611,125.50924 -0.69585,-0.37936 -0.70699,0.35816 0.14576,-0.77902 -0.5591,-0.56171 0.78593,-0.1021 0.36145,-0.70532 0.33997,0.71592 0.78249,0.1258 -0.57582,0.54456 z"
           inkscape:transform-center-x="-0.0025898017"
           inkscape:transform-center-y="-0.05047323"
           transform="matrix(0.46453159,0,0,0.46453159,-29.419064,74.113853)" /><path
           sodipodi:type="star"
           style="opacity:1;fill:#ffffff;fill-opacity:1;stroke-width:0.454001"
           id="path13826"
           inkscape:flatsided="false"
           sodipodi:sides="5"
           sodipodi:cx="-106.74793"
           sodipodi:cy="124.53322"
           sodipodi:r1="1.1934638"
           sodipodi:r2="0.59673196"
           sodipodi:arg1="0.95758898"
           sodipodi:arg2="1.5859075"
           inkscape:rounded="0"
           inkscape:randomized="0"
           d="m -106.0611,125.50924 -0.69585,-0.37936 -0.70699,0.35816 0.14576,-0.77902 -0.5591,-0.56171 0.78593,-0.1021 0.36145,-0.70532 0.33997,0.71592 0.78249,0.1258 -0.57582,0.54456 z"
           inkscape:transform-center-x="-0.0025898017"
           inkscape:transform-center-y="-0.05047323"
           transform="matrix(0.46453159,0,0,0.46453159,-33.743348,75.57733)" /><path
           sodipodi:type="star"
           style="opacity:1;fill:#ffffff;fill-opacity:1;stroke-width:0.454001"
           id="path13828"
           inkscape:flatsided="false"
           sodipodi:sides="5"
           sodipodi:cx="-106.74793"
           sodipodi:cy="124.53322"
           sodipodi:r1="1.1934638"
           sodipodi:r2="0.59673196"
           sodipodi:arg1="0.95758898"
           sodipodi:arg2="1.5859075"
           inkscape:rounded="0"
           inkscape:randomized="0"
           d="m -106.0611,125.50924 -0.69585,-0.37936 -0.70699,0.35816 0.14576,-0.77902 -0.5591,-0.56171 0.78593,-0.1021 0.36145,-0.70532 0.33997,0.71592 0.78249,0.1258 -0.57582,0.54456 z"
           inkscape:transform-center-x="-0.0025898017"
           inkscape:transform-center-y="-0.05047323"
           transform="matrix(0.46453159,0,0,0.46453159,-32.271603,75.57733)" /><path
           sodipodi:type="star"
           style="opacity:1;fill:#ffffff;fill-opacity:1;stroke-width:0.454001"
           id="path13830"
           inkscape:flatsided="false"
           sodipodi:sides="5"
           sodipodi:cx="-106.74793"
           sodipodi:cy="124.53322"
           sodipodi:r1="1.1934638"
           sodipodi:r2="0.59673196"
           sodipodi:arg1="0.95758898"
           sodipodi:arg2="1.5859075"
           inkscape:rounded="0"
           inkscape:randomized="0"
           d="m -106.0611,125.50924 -0.69585,-0.37936 -0.70699,0.35816 0.14576,-0.77902 -0.5591,-0.56171 0.78593,-0.1021 0.36145,-0.70532 0.33997,0.71592 0.78249,0.1258 -0.57582,0.54456 z"
           inkscape:transform-center-x="-0.0025898017"
           inkscape:transform-center-y="-0.05047323"
           transform="matrix(0.46453159,0,0,0.46453159,-30.857736,75.57733)" /><path
           sodipodi:type="star"
           style="opacity:1;fill:#ffffff;fill-opacity:1;stroke-width:0.454001"
           id="path13832"
           inkscape:flatsided="false"
           sodipodi:sides="5"
           sodipodi:cx="-106.74793"
           sodipodi:cy="124.53322"
           sodipodi:r1="1.1934638"
           sodipodi:r2="0.59673196"
           sodipodi:arg1="0.95758898"
           sodipodi:arg2="1.5859075"
           inkscape:rounded="0"
           inkscape:randomized="0"
           d="m -106.0611,125.50924 -0.69585,-0.37936 -0.70699,0.35816 0.14576,-0.77902 -0.5591,-0.56171 0.78593,-0.1021 0.36145,-0.70532 0.33997,0.71592 0.78249,0.1258 -0.57582,0.54456 z"
           inkscape:transform-center-x="-0.0025898017"
           inkscape:transform-center-y="-0.05047323"
           transform="matrix(0.46453159,0,0,0.46453159,-29.419064,75.57733)" /><path
           sodipodi:type="star"
           style="opacity:1;fill:#ffffff;fill-opacity:1;stroke-width:0.454001"
           id="path13834"
           inkscape:flatsided="false"
           sodipodi:sides="5"
           sodipodi:cx="-106.74793"
           sodipodi:cy="124.53322"
           sodipodi:r1="1.1934638"
           sodipodi:r2="0.59673196"
           sodipodi:arg1="0.95758898"
           sodipodi:arg2="1.5859075"
           inkscape:rounded="0"
           inkscape:randomized="0"
           d="m -106.0611,125.50924 -0.69585,-0.37936 -0.70699,0.35816 0.14576,-0.77902 -0.5591,-0.56171 0.78593,-0.1021 0.36145,-0.70532 0.33997,0.71592 0.78249,0.1258 -0.57582,0.54456 z"
           inkscape:transform-center-x="-0.0025898017"
           inkscape:transform-center-y="-0.05047323"
           transform="matrix(0.46453159,0,0,0.46453159,-33.743348,77.140025)" /><path
           sodipodi:type="star"
           style="opacity:1;fill:#ffffff;fill-opacity:1;stroke-width:0.454001"
           id="path13836"
           inkscape:flatsided="false"
           sodipodi:sides="5"
           sodipodi:cx="-106.74793"
           sodipodi:cy="124.53322"
           sodipodi:r1="1.1934638"
           sodipodi:r2="0.59673196"
           sodipodi:arg1="0.95758898"
           sodipodi:arg2="1.5859075"
           inkscape:rounded="0"
           inkscape:randomized="0"
           d="m -106.0611,125.50924 -0.69585,-0.37936 -0.70699,0.35816 0.14576,-0.77902 -0.5591,-0.56171 0.78593,-0.1021 0.36145,-0.70532 0.33997,0.71592 0.78249,0.1258 -0.57582,0.54456 z"
           inkscape:transform-center-x="-0.0025898017"
           inkscape:transform-center-y="-0.05047323"
           transform="matrix(0.46453159,0,0,0.46453159,-32.271603,77.140025)" /><path
           sodipodi:type="star"
           style="opacity:1;fill:#ffffff;fill-opacity:1;stroke-width:0.454001"
           id="path13838"
           inkscape:flatsided="false"
           sodipodi:sides="5"
           sodipodi:cx="-106.74793"
           sodipodi:cy="124.53322"
           sodipodi:r1="1.1934638"
           sodipodi:r2="0.59673196"
           sodipodi:arg1="0.95758898"
           sodipodi:arg2="1.5859075"
           inkscape:rounded="0"
           inkscape:randomized="0"
           d="m -106.0611,125.50924 -0.69585,-0.37936 -0.70699,0.35816 0.14576,-0.77902 -0.5591,-0.56171 0.78593,-0.1021 0.36145,-0.70532 0.33997,0.71592 0.78249,0.1258 -0.57582,0.54456 z"
           inkscape:transform-center-x="-0.0025898017"
           inkscape:transform-center-y="-0.05047323"
           transform="matrix(0.46453159,0,0,0.46453159,-30.857736,77.140025)" /><path
           sodipodi:type="star"
           style="opacity:1;fill:#ffffff;fill-opacity:1;stroke-width:0.454001"
           id="path13840"
           inkscape:flatsided="false"
           sodipodi:sides="5"
           sodipodi:cx="-106.74793"
           sodipodi:cy="124.53322"
           sodipodi:r1="1.1934638"
           sodipodi:r2="0.59673196"
           sodipodi:arg1="0.95758898"
           sodipodi:arg2="1.5859075"
           inkscape:rounded="0"
           inkscape:randomized="0"
           d="m -106.0611,125.50924 -0.69585,-0.37936 -0.70699,0.35816 0.14576,-0.77902 -0.5591,-0.56171 0.78593,-0.1021 0.36145,-0.70532 0.33997,0.71592 0.78249,0.1258 -0.57582,0.54456 z"
           inkscape:transform-center-x="-0.0025898017"
           inkscape:transform-center-y="-0.05047323"
           transform="matrix(0.46453159,0,0,0.46453159,-29.419064,77.140025)" /></g></g></g></svg>
