<?xml version="1.0" encoding="UTF-8" standalone="no"?>
<!-- Created with Inkscape (http://www.inkscape.org/) -->

<svg
   width="243.15062mm"
   height="42.75613mm"
   viewBox="0 0 243.15062 42.75613"
   version="1.1"
   id="svg151"
   xml:space="preserve"
   inkscape:version="1.2.1 (9c6d41e410, 2022-07-14)"
   sodipodi:docname="logo_login2.svg"
   xmlns:inkscape="http://www.inkscape.org/namespaces/inkscape"
   xmlns:sodipodi="http://sodipodi.sourceforge.net/DTD/sodipodi-0.dtd"
   xmlns="http://www.w3.org/2000/svg"
   xmlns:svg="http://www.w3.org/2000/svg"><sodipodi:namedview
     id="namedview153"
     pagecolor="#ffffff"
     bordercolor="#000000"
     borderopacity="0.25"
     inkscape:showpageshadow="2"
     inkscape:pageopacity="0.0"
     inkscape:pagecheckerboard="0"
     inkscape:deskcolor="#d1d1d1"
     inkscape:document-units="mm"
     showgrid="false"
     inkscape:zoom="0.914906"
     inkscape:cx="114.21938"
     inkscape:cy="189.09046"
     inkscape:window-width="2560"
     inkscape:window-height="1417"
     inkscape:window-x="-8"
     inkscape:window-y="-8"
     inkscape:window-maximized="1"
     inkscape:current-layer="g1244" /><defs
     id="defs148" /><g
     inkscape:label="Camada 1"
     inkscape:groupmode="layer"
     id="layer1"
     transform="translate(-19.816773,-109.48991)"><g
       id="g1244"
       transform="matrix(0.94588999,0,0,0.94588999,1.0722858,5.9244998)"><g
         id="g1255"
         transform="translate(4.8917624,1.2229406)"><g
           id="g531"
           transform="matrix(0.67557237,0,0,0.67557237,2.9713561,40.18673)"
           style="fill:#ddedf7;fill-opacity:1"><path
             style="fill:#ddedf7;fill-opacity:1;stroke-width:0.410253"
             d="m 56.440804,109.69861 8.13054,-7.11422 31.321,10.71751 0.0924,43.70158 h -10.9023 l 0.0924,-37.69608 z"
             id="path3311" /><path
             style="fill:#ddedf7;fill-opacity:1;stroke-width:0.410253"
             d="m 50.712484,117.27477 0.0924,-12.65774 -25.869854,22.08176 v 39.17435 h 46.842914 v -8.96206 l -37.78846,0.36957 -0.0924,-25.77746 z"
             id="path363" /><g
             id="g17097"
             transform="matrix(0.96660302,0,0,0.96660302,-135.30482,14.516854)"
             style="fill:#ddedf7;fill-opacity:1"><path
               style="fill:#ddedf7;fill-opacity:1;stroke-width:0.454001"
               d="m 192.52945,116.97809 c 0.0982,5.09166 -0.0257,14.74828 0.009,19.32163 0.0153,2.02282 3.97446,1.96241 3.95831,-0.009 -0.0461,-5.63406 -0.0128,-14.42963 -0.002,-19.23592 0.005,-1.94357 -3.99946,-1.82433 -3.96577,-0.0767 z"
               id="path15463"
               sodipodi:nodetypes="sssss" /><path
               style="fill:#ddedf7;fill-opacity:1;stroke-width:0.454001"
               d="m 200.19303,116.97809 c 0.0982,5.09166 -0.0257,14.74828 0.009,19.32163 0.0153,2.02282 3.97446,1.96241 3.95831,-0.009 -0.0461,-5.63406 -0.0128,-14.42963 -0.002,-19.23592 0.005,-1.94357 -3.99946,-1.82433 -3.96577,-0.0767 z"
               id="path17090"
               sodipodi:nodetypes="sssss" /><path
               style="fill:#ddedf7;fill-opacity:1;stroke-width:0.454001"
               d="m 208.14581,116.97809 c 0.0982,5.09166 -0.0257,14.74828 0.009,19.32163 0.0153,2.02282 3.97446,1.96241 3.95831,-0.009 -0.0461,-5.63406 -0.0128,-14.42963 -0.002,-19.23592 0.005,-1.94357 -3.99946,-1.82433 -3.96577,-0.0767 z"
               id="path17092"
               sodipodi:nodetypes="sssss" /></g></g><text
           xml:space="preserve"
           style="font-style:normal;font-variant:normal;font-weight:bold;font-stretch:normal;font-size:36.0792px;font-family:sans-serif;-inkscape-font-specification:'sans-serif Bold';fill:#ddedf7;fill-opacity:1;stroke-width:1.16079"
           x="71.884262"
           y="141.81955"
           id="text17879"
           transform="scale(0.98175825,1.0185807)"><tspan
             sodipodi:role="line"
             id="tspan17877"
             style="font-style:normal;font-variant:normal;font-weight:bold;font-stretch:normal;font-family:sans-serif;-inkscape-font-specification:'sans-serif Bold';fill:#ddedf7;fill-opacity:1;stroke-width:1.16079"
             x="71.884262"
             y="141.81955">THE GATE</tspan></text></g></g></g></svg>
