<?xml version="1.0" encoding="UTF-8" standalone="no"?>
<!-- Created with Inkscape (http://www.inkscape.org/) -->

<svg
   width="73.603371mm"
   height="96.700081mm"
   viewBox="0 0 73.603371 96.700081"
   version="1.1"
   id="svg5"
   xml:space="preserve"
   inkscape:version="1.2.1 (9c6d41e410, 2022-07-14)"
   sodipodi:docname="logo_login.svg"
   xmlns:inkscape="http://www.inkscape.org/namespaces/inkscape"
   xmlns:sodipodi="http://sodipodi.sourceforge.net/DTD/sodipodi-0.dtd"
   xmlns="http://www.w3.org/2000/svg"
   xmlns:svg="http://www.w3.org/2000/svg"><sodipodi:namedview
     id="namedview7"
     pagecolor="#ffffff"
     bordercolor="#000000"
     borderopacity="0.25"
     inkscape:showpageshadow="2"
     inkscape:pageopacity="0.0"
     inkscape:pagecheckerboard="0"
     inkscape:deskcolor="#d1d1d1"
     inkscape:document-units="mm"
     showgrid="false"
     showguides="true"
     inkscape:zoom="1.2938725"
     inkscape:cx="76.128059"
     inkscape:cy="241.90947"
     inkscape:window-width="2560"
     inkscape:window-height="1417"
     inkscape:window-x="-8"
     inkscape:window-y="-8"
     inkscape:window-maximized="1"
     inkscape:current-layer="layer1" /><defs
     id="defs2" /><g
     inkscape:label="Camada 1"
     inkscape:groupmode="layer"
     id="layer1"
     transform="translate(-62.032221,-84.258401)"><g
       id="g22480"><path
         style="fill:#52646f;fill-opacity:1;stroke-width:0.410253"
         d="m 94.905845,104.48296 8.130535,-7.114217 31.321,10.717507 0.0924,43.70158 h -10.9023 l 0.0924,-37.69608 z"
         id="path3311" /><path
         style="fill:#ffffff;fill-opacity:1;stroke-width:0.410253"
         d="M 89.177524,112.05912 89.269914,99.401376 63.40006,121.48314 v 39.17435 h 46.84291 v -8.96206 l -37.788458,0.36957 -0.0924,-25.77746 z"
         id="path2822" /><path
         style="fill:#52646f;fill-opacity:1;stroke-width:0.410253"
         d="M 89.177524,112.05912 89.269914,99.401376 63.40006,121.48314 v 39.17435 h 46.84291 v -8.96206 l -37.788458,0.36957 -0.0924,-25.77746 z"
         id="path363" /><g
         id="g17097"
         transform="matrix(0.96660302,0,0,0.96660302,-96.839777,9.3011998)"><path
           style="fill:#52646f;fill-opacity:1;stroke-width:0.454001"
           d="m 192.52945,116.97809 c 0.0982,5.09166 -0.0257,14.74828 0.009,19.32163 0.0153,2.02282 3.97446,1.96241 3.95831,-0.009 -0.0461,-5.63406 -0.0128,-14.42963 -0.002,-19.23592 0.005,-1.94357 -3.99946,-1.82433 -3.96577,-0.0767 z"
           id="path15463"
           sodipodi:nodetypes="sssss" /><path
           style="fill:#52646f;fill-opacity:1;stroke-width:0.454001"
           d="m 200.19303,116.97809 c 0.0982,5.09166 -0.0257,14.74828 0.009,19.32163 0.0153,2.02282 3.97446,1.96241 3.95831,-0.009 -0.0461,-5.63406 -0.0128,-14.42963 -0.002,-19.23592 0.005,-1.94357 -3.99946,-1.82433 -3.96577,-0.0767 z"
           id="path17090"
           sodipodi:nodetypes="sssss" /><path
           style="fill:#52646f;fill-opacity:1;stroke-width:0.454001"
           d="m 208.14581,116.97809 c 0.0982,5.09166 -0.0257,14.74828 0.009,19.32163 0.0153,2.02282 3.97446,1.96241 3.95831,-0.009 -0.0461,-5.63406 -0.0128,-14.42963 -0.002,-19.23592 0.005,-1.94357 -3.99946,-1.82433 -3.96577,-0.0767 z"
           id="path17092"
           sodipodi:nodetypes="sssss" /></g><text
         xml:space="preserve"
         style="font-style:normal;font-variant:normal;font-weight:bold;font-stretch:normal;font-size:13.391px;font-family:sans-serif;-inkscape-font-specification:'sans-serif Bold';fill:#52646f;fill-opacity:1;stroke-width:0.430833"
         x="64.242287"
         y="175.9877"
         id="text17879"
         transform="scale(0.98175825,1.0185807)"><tspan
           sodipodi:role="line"
           id="tspan17877"
           style="font-style:normal;font-variant:normal;font-weight:bold;font-stretch:normal;font-family:sans-serif;-inkscape-font-specification:'sans-serif Bold';stroke-width:0.430832"
           x="64.242287"
           y="175.9877">THE GATE</tspan></text><text
         xml:space="preserve"
         style="font-style:normal;font-variant:normal;font-weight:bold;font-stretch:normal;font-size:8.18391px;font-family:sans-serif;-inkscape-font-specification:'sans-serif Bold';fill:#52646f;fill-opacity:1;stroke-width:0.438839"
         x="72.158791"
         y="92.211403"
         id="text18779"><tspan
           sodipodi:role="line"
           id="tspan18777"
           style="font-size:8.18391px;stroke-width:0.438838"
           x="72.158791"
           y="92.211403">Welcome to</tspan></text></g></g></svg>
